<!DOCTYPE svg PUBLIC "-//W3C//DTD SVG 1.1//EN" "http://www.w3.org/Graphics/SVG/1.1/DTD/svg11.dtd">
<!-- Uploaded to: SVG Repo, www.svgrepo.com, Transformed by: SVG Repo Mixer Tools -->
<svg fill="#000000" height="256px" width="256px" version="1.1" id="Capa_1" xmlns="http://www.w3.org/2000/svg" xmlns:xlink="http://www.w3.org/1999/xlink" viewBox="-91.15 -91.15 638.03 638.03" xml:space="preserve">
<g id="SVGRepo_bgCarrier" stroke-width="0"/>
<g id="SVGRepo_tracerCarrier" stroke-linecap="round" stroke-linejoin="round"/>
<g id="SVGRepo_iconCarrier"> <g> <path d="M200.399,337.104c0,0.56,0,1.26-0.31,1.65c-2.1,2.71-4.6,4.97-7.88,6.17c-2.85,1.04-5.12-0.23-5.72-3.19 c-0.24-1.17-0.25-2.4-0.25-3.6c-0.01-22.05-0.07-67.26-0.1-67.81h-16.27c0,0.61-0.02,63.59,0.02,75.49 c0.01,3.22,0.35,6.42,1.69,9.41c1.44,3.24,3.83,5.29,7.39,5.88c2.61,0.45,5.16,0.16,7.64-0.69c5.08-1.75,9.06-5.05,12.57-9.01 c0.31-0.35,0.64-0.69,1.23-1.32v9.88h16.31v-43.23c0-14.98,0-46.55,0-46.55l-16.32,0.04V337.104z"/> <path d="M277.509,277.334c-3.44-7.33-10.67-9.27-16.94-7.7c-3.8,0.96-6.88,3.15-9.41,5.98c-0.84,0.95-1.76,2.79-1.76,2.79 s0-27.07,0-40.01h-16.34v121.55h16.34v-6.82c0,0,1.16,1.23,1.58,1.68c3.75,4.07,8.3,6.3,13.91,6.35c6.9,0.07,11.7-3.27,13.88-9.83 c1.01-3.05,1.34-6.19,1.35-9.37c0.02-16.99,0.02-33.98-0.01-50.97C280.109,286.284,279.539,281.665,277.509,277.334z M263.289,339.925c0,0.91-0.11,1.83-0.3,2.72c-0.75,3.56-3.46,5.16-7.3,4.37c-2.33-0.48-4.15-1.82-5.71-3.51 c-0.07-0.08-0.53-0.7-0.53-0.7v-1.33l-0.04-53.97c0,0,0.35-1,1.12-1.67c1.92-1.7,4.04-2.77,6.69-2.51c2.26,0.22,4.06,1.26,4.9,3.35 c0.63,1.59,1.13,3.36,1.14,5.06C263.339,307.794,263.309,323.854,263.289,339.925z"/> <path d="M218.753,171.39c3.81,0,6.909-3.099,6.909-6.909v-48.751c0-3.81-3.1-6.909-6.909-6.909s-6.909,3.1-6.909,6.909v48.751 C211.843,168.29,214.943,171.39,218.753,171.39z"/> <polygon points="169.909,238.405 113.309,238.405 113.309,255.824 132.379,255.824 132.379,359.955 150.799,359.955 150.799,255.784 169.909,255.784 "/> <path d="M324.189,328.084v11.53c0,4.03-3.26,7.29-7.28,7.29c-4.03,0-7.29-3.26-7.29-7.29v-22.43h31.29c0,0,0.18-15.65,0.05-22.75 c-0.05-3.03-0.28-6.1-0.9-9.06c-1.62-7.68-5.75-13.47-13.48-16.01c-2.27-0.75-4.71-1.14-7.1-1.29c-7.95-0.51-14.91,1.76-20.35,7.85 c-4.77,5.33-6.43,11.75-6.44,18.71c-0.03,13.31-0.09,26.63,0.04,39.94c0.04,3.39,0.42,6.85,1.19,10.15 c1.66,7.09,5.53,12.66,12.36,15.74c4.99,2.26,10.26,2.37,15.58,1.59c8.58-1.26,14.43-5.86,17.26-14.15 c2.13-6.21,1.88-19.82,1.88-19.82H324.189z M309.619,290.685c0-4.02,3.26-7.29,7.29-7.29c4.02,0,7.28,3.27,7.28,7.29v12.59h-14.57 V290.685z"/> <path d="M0,0v455.731h455.731V0H0z M256.735,94.99h16.596v68.821c0,0.912,0.073,1.834,0.233,2.728 c0.503,2.836,2.6,4.171,5.331,3.224c3.329-1.152,5.87-3.457,8.024-6.173c0.306-0.388,0.25-1.112,0.25-1.681V94.99h16.717 l-0.005,90.244H287.16l0.02-9.695c-1.849,1.821-3.427,3.522-5.161,5.05c-3.074,2.708-6.556,4.727-10.629,5.524 c-6.253,1.222-11.579-0.754-13.573-7.23c-0.664-2.157-1.065-4.482-1.082-6.734V94.99z M218.753,92.731L218.753,92.731 c13.224,0,23.944,10.72,23.944,23.944v46.859c0,13.224-10.72,23.944-23.944,23.944l0,0c-13.224,0-23.944-10.72-23.944-23.944 v-46.859C194.808,103.451,205.528,92.731,218.753,92.731z M154.343,63.07c0,0,7.605,32.301,11.235,47.602h0.006 c3.63-15.301,11.235-47.602,11.235-47.602h19.029c0,0-14.62,48.487-21.158,70.111c-0.236,0.781-0.343,1.631-0.343,2.45 l0.008,49.584h-17.547l0.007-49.584c0-0.819-0.108-1.668-0.343-2.45c-6.538-21.624-21.158-70.111-21.158-70.111H154.343z M363.579,350.865c0,22.18-17.72,40.3-39.89,40.77c-63.87,1.37-127.77,1.37-191.65,0c-22.16-0.47-39.88-18.59-39.88-40.77v-99.76 c0-22.17,17.72-40.29,39.88-40.76c63.88-1.37,127.78-1.37,191.65,0c22.17,0.47,39.89,18.59,39.89,40.76V350.865z"/> </g> </g>
</svg>